<svg width="257" height="66" viewBox="0 0 257 66" fill="none" xmlns="http://www.w3.org/2000/svg">
<path d="M128.5 22.0625C163.965 22.0625 196.061 24.5173 219.279 28.4814C230.892 30.4642 240.261 32.8207 246.715 35.4258C249.944 36.7292 252.415 38.0833 254.069 39.4639C255.729 40.8485 256.5 42.2007 256.5 43.502C256.5 44.8031 255.729 46.1546 254.069 47.5391C252.415 48.9196 249.944 50.2737 246.715 51.5771C240.261 54.1822 230.892 56.5387 219.279 58.5215C196.061 62.4856 163.965 64.9404 128.5 64.9404C93.035 64.9404 60.9392 62.4856 37.7207 58.5215C26.1075 56.5387 16.7388 54.1822 10.2852 51.5771C7.05609 50.2737 4.58528 48.9196 2.93066 47.5391C1.27142 46.1546 0.50017 44.8031 0.5 43.502C0.5 42.2007 1.2712 40.8485 2.93066 39.4639C4.58529 38.0833 7.05607 36.7292 10.2852 35.4258C16.7388 32.8207 26.1075 30.4642 37.7207 28.4814C60.9392 24.5173 93.035 22.0625 128.5 22.0625Z" fill="url(#paint0_radial_6064_344386)" stroke="#FFB574"/>
<g filter="url(#filter0_d_6064_344386)">
<path d="M38 12.7188H221V25.2853C221 25.2853 216.68 37.0664 128.715 37.0664C40.7489 37.0664 38 25.2853 38 25.2853V12.7188Z" fill="#100625"/>
</g>
<ellipse cx="129.5" cy="13.1113" rx="91.5" ry="12.1738" fill="#302B63"/>
<g filter="url(#filter1_f_6064_344386)">
<ellipse cx="129.5" cy="13.1098" rx="53.8004" ry="7.46137" fill="url(#paint1_radial_6064_344386)"/>
</g>
<g filter="url(#filter2_d_6064_344386)">
<ellipse cx="131.857" cy="13.1122" rx="22.3841" ry="2.74893" fill="url(#paint2_radial_6064_344386)" shape-rendering="crispEdges"/>
</g>
<defs>
<filter id="filter0_d_6064_344386" x="34" y="12.7188" width="191" height="32.3477" filterUnits="userSpaceOnUse" color-interpolation-filters="sRGB">
<feFlood flood-opacity="0" result="BackgroundImageFix"/>
<feColorMatrix in="SourceAlpha" type="matrix" values="0 0 0 0 0 0 0 0 0 0 0 0 0 0 0 0 0 0 127 0" result="hardAlpha"/>
<feOffset dy="4"/>
<feGaussianBlur stdDeviation="2"/>
<feComposite in2="hardAlpha" operator="out"/>
<feColorMatrix type="matrix" values="0 0 0 0 0 0 0 0 0 0 0 0 0 0 0 0 0 0 0.25 0"/>
<feBlend mode="normal" in2="BackgroundImageFix" result="effect1_dropShadow_6064_344386"/>
<feBlend mode="normal" in="SourceGraphic" in2="effect1_dropShadow_6064_344386" result="shape"/>
</filter>
<filter id="filter1_f_6064_344386" x="71.6992" y="1.64844" width="115.602" height="22.9219" filterUnits="userSpaceOnUse" color-interpolation-filters="sRGB">
<feFlood flood-opacity="0" result="BackgroundImageFix"/>
<feBlend mode="normal" in="SourceGraphic" in2="BackgroundImageFix" result="shape"/>
<feGaussianBlur stdDeviation="2" result="effect1_foregroundBlur_6064_344386"/>
</filter>
<filter id="filter2_d_6064_344386" x="105.473" y="10.3633" width="52.7676" height="13.498" filterUnits="userSpaceOnUse" color-interpolation-filters="sRGB">
<feFlood flood-opacity="0" result="BackgroundImageFix"/>
<feColorMatrix in="SourceAlpha" type="matrix" values="0 0 0 0 0 0 0 0 0 0 0 0 0 0 0 0 0 0 127 0" result="hardAlpha"/>
<feOffset dy="4"/>
<feGaussianBlur stdDeviation="2"/>
<feComposite in2="hardAlpha" operator="out"/>
<feColorMatrix type="matrix" values="0 0 0 0 0 0 0 0 0 0 0 0 0 0 0 0 0 0 0.25 0"/>
<feBlend mode="normal" in2="BackgroundImageFix" result="effect1_dropShadow_6064_344386"/>
<feBlend mode="normal" in="SourceGraphic" in2="effect1_dropShadow_6064_344386" result="shape"/>
</filter>
<radialGradient id="paint0_radial_6064_344386" cx="0" cy="0" r="1" gradientUnits="userSpaceOnUse" gradientTransform="translate(128.5 43.5015) rotate(180) scale(128.5 21.939)">
<stop stop-color="#0d0938ff"/>
<stop offset="0.555" stop-color="#0d0938ff"/>
</radialGradient>
<radialGradient id="paint1_radial_6064_344386" cx="0" cy="0" r="1" gradientUnits="userSpaceOnUse" gradientTransform="translate(129.5 13.1098) scale(53.8004 7.46137)">
<stop stop-color="#302B63"/>
<stop offset="1" stop-color="#0B3A45"/>
</radialGradient>
<radialGradient id="paint2_radial_6064_344386" cx="0" cy="0" r="1" gradientUnits="userSpaceOnUse" gradientTransform="translate(131.857 13.1122) scale(22.3841 2.74893)">
<stop stop-color="#D9D9D9"/>
<stop offset="1" stop-color="#0B3A45" stop-opacity="0.3"/>
</radialGradient>
</defs>
</svg>
